<svg id="Layer_1" data-name="Layer 1" xmlns="http://www.w3.org/2000/svg" viewBox="0 0 98.37 87.84"><defs><style>.cls-1{fill:none;stroke:#000;stroke-linecap:round;stroke-miterlimit:10;stroke-width:3px;}</style></defs><title>logo</title><path d="M52,73a1.63,1.63,0,0,1-.7-2l10.9-21.5a1.5,1.5,0,0,1,2.7,1.3l-10.8,21.5A1.72,1.72,0,0,1,52,73Z"/><path d="M58.33,76.11a1.63,1.63,0,0,1-.7-2l10.9-21.4a1.5,1.5,0,0,1,2.7,1.3l-10.9,21.5A1.49,1.49,0,0,1,58.33,76.11Z"/><path d="M64.53,79.31a1.63,1.63,0,0,1-.7-2l10.9-21.4a1.5,1.5,0,1,1,2.7,1.3l-10.9,21.4A1.4,1.4,0,0,1,64.53,79.31Z"/><path d="M94.53,59.81l-3.2-1.6a6.25,6.25,0,0,0,.7-4,6.92,6.92,0,0,0,5.4-3.2,6.79,6.79,0,0,0-1-8.2,7,7,0,0,0-9.5-8.6,10,10,0,0,0-2.1-2,6.43,6.43,0,0,0-3.5-1,5.39,5.39,0,0,0-6-2.4,5.54,5.54,0,0,0-3.4,2.4,7.35,7.35,0,0,0-7,1,3,3,0,0,0-.7-.5,6,6,0,0,0-4.3-.7,5.51,5.51,0,0,0-3.5,2.6,5.68,5.68,0,0,0,1.2,7.3l-14.4,28.3a6.6,6.6,0,0,0,2.9,8.9l17.7,9a6.6,6.6,0,0,0,8.9-2.9l3-5.9,7.5,3.8a1.44,1.44,0,0,0,2-.7l10-19.5A1.53,1.53,0,0,0,94.53,59.81Zm-24.4,23a3.65,3.65,0,0,1-4.9,1.6l-17.7-9a3.65,3.65,0,0,1-1.6-4.9l14.3-28.2a5.53,5.53,0,0,0,3.1-.3,8,8,0,0,0,2.3,2.2,6.61,6.61,0,0,0,4.1,1,6.87,6.87,0,0,0,3.3,5.4,5.84,5.84,0,0,0,2.2.8,8.8,8.8,0,0,0,3.3,3.6,9.82,9.82,0,0,0,1.8.8,5.8,5.8,0,0,0,1.7,3.7Zm13.1-28a1.48,1.48,0,0,0-.8-1.6.6.6,0,0,0-.4-.1,6.79,6.79,0,0,1-2-.7,6.19,6.19,0,0,1-2.4-2.9,1.52,1.52,0,0,0-1.3-1,3.45,3.45,0,0,1-1.8-.5,3.71,3.71,0,0,1-1.7-4.3,1.67,1.67,0,0,0-.4-1.5,1.4,1.4,0,0,0-1.5-.3,4.48,4.48,0,0,1-3.6-.3,4.33,4.33,0,0,1-1.8-2.2,1.3,1.3,0,0,0-1-.9,1.74,1.74,0,0,0-1.4.3,2.89,2.89,0,0,1-3.2.3,2.76,2.76,0,0,1-.9-3.8,2.59,2.59,0,0,1,1.7-1.2,2.63,2.63,0,0,1,2.1.3,2,2,0,0,1,.9.9,1.52,1.52,0,0,0,1.2.7,1.61,1.61,0,0,0,1.3-.6,4.2,4.2,0,0,1,5.5-1c.1.1.2.1.3.2a1.4,1.4,0,0,0,1.4.2,1.44,1.44,0,0,0,.9-1.1,6.89,6.89,0,0,1,.3-.8,2.09,2.09,0,0,1,1.6-1.1,2.14,2.14,0,0,1,1.9.3,3.18,3.18,0,0,1,1.1,1.3,1.43,1.43,0,0,0,1.6,1,5,5,0,0,1,2.7.5,4.1,4.1,0,0,1,1.7,2,1.5,1.5,0,0,0,1,.9,1.44,1.44,0,0,0,1.3-.3,3.91,3.91,0,0,1,4.6-.3,4,4,0,0,1,1.5,5.3,1.34,1.34,0,0,0,.5,1.9,3.7,3.7,0,0,1-3.7,6.4,1.57,1.57,0,0,0-1.9.5,1.5,1.5,0,0,0,.1,1.9,3,3,0,0,1,.4,3.6,3.1,3.1,0,0,1-1.8,1.4,3.06,3.06,0,0,1-2.3-.3A3.11,3.11,0,0,1,83.23,54.81Zm.1,23.9-6.2-3.1L84.53,61a6.61,6.61,0,0,0,4.6-.5l2.7,1.4Z"/><path d="M40.73,48.31a1.46,1.46,0,0,0,1-1.9l-6.5-23a1.52,1.52,0,1,0-2.9.9l6.5,23.1A1.63,1.63,0,0,0,40.73,48.31Z"/><path d="M34,50.21a1.46,1.46,0,0,0,1-1.9l-6.5-23.1a1.52,1.52,0,1,0-2.9.9l6.5,23.1A1.58,1.58,0,0,0,34,50.21Z"/><path d="M27.33,52.11a1.46,1.46,0,0,0,1-1.9l-6.5-23.1a1.52,1.52,0,0,0-2.9.9l6.5,23.1A1.54,1.54,0,0,0,27.33,52.11Z"/><path d="M.53,29.11l6,21.1a1.46,1.46,0,0,0,1.9,1l8.1-2.3,1.8,6.4a6.69,6.69,0,0,0,8.2,4.6l19.1-5.4a6.69,6.69,0,0,0,4.6-8.2l-8.7-30.4a5.91,5.91,0,0,0,2.6-7,5.55,5.55,0,0,0-3-3.2,6.09,6.09,0,0,0-4.4-.2,2,2,0,0,0-.8.4,6.91,6.91,0,0,0-6.6-2.3,5.48,5.48,0,0,0-2.8-3A5.34,5.34,0,0,0,20,1.81a7.79,7.79,0,0,0-3.7.3,7.48,7.48,0,0,0-2.4,1.5,6.92,6.92,0,0,0-6.4-.9,7.16,7.16,0,0,0-4.6,7.4,6.61,6.61,0,0,0-2.5,7.8A6.65,6.65,0,0,0,5,22.11a5.78,5.78,0,0,0-.1,4.1l-3.4,1A1.58,1.58,0,0,0,.53,29.11Zm13.5.2a6.07,6.07,0,0,0,2.4-3.3,6.69,6.69,0,0,0,1.9-.5,8.73,8.73,0,0,0,3.9-2.9,5.87,5.87,0,0,0,2.3-.4,7,7,0,0,0,4.3-4.6,7.52,7.52,0,0,0,4.2-.2,6.54,6.54,0,0,0,2.6-1.7,5.29,5.29,0,0,0,3,.9l8.6,30.5a3.7,3.7,0,0,1-2.5,4.5L25.63,57a3.7,3.7,0,0,1-4.5-2.5Zm-2.4-2.1a3,3,0,0,1-2.3-.1,3,3,0,0,1-1.6-1.7,3,3,0,0,1,1.1-3.5,1.54,1.54,0,0,0,.5-1.9,1.38,1.38,0,0,0-1.7-.8,3.61,3.61,0,0,1-4.4-2.3,3.74,3.74,0,0,1,2-4.7,1.4,1.4,0,0,0,.8-1.8,4.18,4.18,0,0,1,2.5-5A4,4,0,0,1,13,6.61a1.22,1.22,0,0,0,1.2.5,1.52,1.52,0,0,0,1.2-.7,4.7,4.7,0,0,1,2-1.7,4.47,4.47,0,0,1,2.8,0A1.49,1.49,0,0,0,22,4a2.45,2.45,0,0,1,1.3-1.1,4.22,4.22,0,0,1,1.9.3,2.54,2.54,0,0,1,1.3,1.4,2,2,0,0,1,.1.8,1.39,1.39,0,0,0,.7,1.2,1.41,1.41,0,0,0,1.4.1.37.37,0,0,1,.3-.1,4.24,4.24,0,0,1,5.2,2,1.55,1.55,0,0,0,1.1.8,1.3,1.3,0,0,0,1.3-.5,2.78,2.78,0,0,1,4.6.9,2.74,2.74,0,0,1-1.6,3.5,2.7,2.7,0,0,1-3.1-.9,1.61,1.61,0,0,0-1.3-.6,1.52,1.52,0,0,0-1.2.7,4.33,4.33,0,0,1-2.2,1.8,4.17,4.17,0,0,1-3.6-.4,1.53,1.53,0,0,0-1.6,0,1.34,1.34,0,0,0-.7,1.4,3.91,3.91,0,0,1-2.5,3.9,4,4,0,0,1-1.9.2,1.49,1.49,0,0,0-1.5.7,6.19,6.19,0,0,1-2.9,2.4,5.11,5.11,0,0,1-2.1.3c-.2,0-.3,0-.4.1a1.5,1.5,0,0,0-1.1,1.4A2.76,2.76,0,0,1,11.63,27.21Zm-7.8,2.5,2.9-.8a5.86,5.86,0,0,0,4.4,1.4L15.53,46,9,47.91Z"/><path class="cls-1" d="M57.33,19.71"/><path d="M51.93,15.81a1.52,1.52,0,0,1-1.5-1.4l-.7-7.9a1.5,1.5,0,0,1,3-.2l.7,7.9a1.42,1.42,0,0,1-1.4,1.6Z"/><path d="M59.33,18.51a1.61,1.61,0,0,1-.9-.3,1.46,1.46,0,0,1-.3-2.1l4.5-6a1.5,1.5,0,0,1,2.4,1.8l-4.5,6A1.43,1.43,0,0,1,59.33,18.51Z"/><path d="M63.63,25.51a1.51,1.51,0,0,1-1.5-1.3,1.55,1.55,0,0,1,1.3-1.7l7.7-.9a1.51,1.51,0,1,1,.4,3l-7.7.9Z"/></svg>