<svg id="Layer_1" data-name="Layer 1" xmlns="http://www.w3.org/2000/svg" viewBox="0 0 86 74.4"><defs><style>.cls-1{fill:#4f2828;}</style></defs><title>poop</title><circle class="cls-1" cx="33.4" cy="49.3" r="3.2"/><circle class="cls-1" cx="52.3" cy="49.3" r="3.2"/><path class="cls-1" d="M74.9,49.7c0-.1-.3-.3-.3-.3h0a12.39,12.39,0,0,0-9.3-12.1v-.4a12.69,12.69,0,0,0-7.5-11.5C63.3,10.6,40.1,0,40.1,0s5.3,16-5.3,16c-6.1,0-6.6,4.8-6,8.9a12.4,12.4,0,0,0-8.7,11.9v.3a13,13,0,0,0-9.3,11.3h0a3.55,3.55,0,0,1,.1.7.35.35,0,0,1,.1.2h-.1c0,.1-.2.2-.2.4A12.57,12.57,0,0,0,0,62H0A12.51,12.51,0,0,0,12.6,74.4H72.8C79.7,74.4,86,68.9,86,62h0C86,55.7,81,50.6,74.9,49.7ZM33.4,56a6.6,6.6,0,1,1,6.4-6.6A6.49,6.49,0,0,1,33.4,56Zm19,0a6.6,6.6,0,1,1,6.4-6.6A6.37,6.37,0,0,1,52.4,56Z"/></svg>