<svg xmlns="http://www.w3.org/2000/svg" width="233" height="99"><g fill="none" fill-rule="evenodd"><path d="M119.92 24.116h-3.559v9.937h-1.472v-9.937h-3.555v-1.467h8.585v1.467M134.545 34.053h-1.472v-4.98h-5.778v4.98h-1.474V22.649h1.474v4.954h5.778v-4.954h1.472v11.404M147.155 24.116H142.8v3.438h4.204v1.47H142.8v3.56h4.493v1.469h-5.963V22.649h5.825v1.467M53.426 91.159l1.42 3.532h-2.74l1.32-3.532zm.464-2.148H53l-3.787 9.836h1.292l1.11-2.888h3.749l1.176 2.888h1.291l-3.94-9.836zM67.993 90.331h-3.046v8.516H63.68v-8.516h-3.05v-1.267h7.363v1.267M81.449 93.956c0-2.15 1.459-3.726 3.423-3.726 1.971 0 3.432 1.576 3.432 3.726 0 2.134-1.46 3.724-3.432 3.724-1.964 0-3.423-1.59-3.423-3.724zm-1.293 0c0 2.648 1.81 5.014 4.687 5.014 2.982 0 4.758-2.377 4.758-5.014 0-2.723-1.829-5.017-4.729-5.017-2.855 0-4.716 2.31-4.716 5.017zM102.527 98.847h-1.74l-4.484-4.834v4.834h-1.268v-9.784h1.268v4.476l3.707-4.476h1.575l-3.835 4.633 4.777 5.151M110.624 91.159l1.423 3.532h-2.74l1.317-3.532zm.466-2.148h-.891l-3.787 9.836h1.294l1.11-2.888h3.744l1.175 2.888h1.297l-3.942-9.836zM128.018 98.847h-1.084l-5.89-7.531v7.531h-1.192v-9.784h1.01l5.964 7.577v-7.577h1.192v9.784M137.078 91.159l1.425 3.532h-2.741l1.316-3.532zm.47-2.148h-.893l-3.786 9.836h1.29l1.113-2.888h3.746l1.175 2.888h1.29l-3.934-9.836zM153.536 98.169c-1.174.572-2.132.801-3.36.801-2.706 0-4.687-2.093-4.687-4.963 0-2.874 2.034-5.068 4.723-5.068 1.038 0 1.758.187 3.142.832v1.418c-1.032-.629-2.104-.959-3.168-.959-1.914 0-3.4 1.617-3.4 3.734 0 2.182 1.475 3.716 3.57 3.716.685 0 1.307-.171 1.915-.387v-2.007h-1.694V94.02h2.959v4.148M162.491 91.159l1.42 3.532h-2.74l1.32-3.532zm.463-2.148h-.889l-3.787 9.836h1.293l1.109-2.888h3.75l1.173 2.888h1.29l-3.939-9.836zM179.885 98.847h-1.088l-5.888-7.531v7.531h-1.194v-9.784h1.01l5.972 7.577v-7.577h1.188v9.784M200.889 98.169c-1.174.572-2.131.801-3.36.801-2.704 0-4.684-2.093-4.684-4.963 0-2.874 2.034-5.068 4.722-5.068 1.033 0 1.758.187 3.14.832v1.418c-1.033-.629-2.107-.959-3.166-.959-1.914 0-3.4 1.617-3.4 3.734 0 2.182 1.475 3.716 3.572 3.716.684 0 1.302-.171 1.912-.387v-2.007h-1.697V94.02h2.96v4.148M207.823 98.113c0 .474-.344.858-.773.858-.423 0-.772-.384-.772-.858 0-.472.349-.859.772-.859.429 0 .773.387.773.859M220.801 91.249c-1.082-.705-2.011-1.019-3.033-1.019-2.014 0-3.515 1.593-3.515 3.741 0 2.192 1.446 3.709 3.565 3.709.996 0 2.078-.387 3.075-1.101v1.531c-.865.504-1.807.86-3.19.86-3.31 0-4.748-2.823-4.748-4.871 0-2.979 2.023-5.16 4.824-5.16.902 0 1.821.244 3.022.805v1.505M227.87 98.113c0 .474-.346.858-.774.858-.423 0-.773-.384-.773-.858 0-.472.35-.859.773-.859.428 0 .774.387.774.859" fill="#B2945A"/><path d="M87.053 71.04c-12.444 0-16.991-12.113-16.991-21.45 0-13.816 8.529-18.293 15.097-18.293 12.068 0 16.68 11.229 16.68 21.637 0 12.429-7.202 18.106-14.786 18.106zm-.819-41.666c-13.015 0-22.48 9.619-22.48 22.236 0 9.021 5.11 16.466 13.508 19.683 2.278.821 4.552 1.267 6.192 1.521 1.768.317 2.34.445 4.234 2.355 2.337 2.291 6.507 5.984 11.684 8.404 3.727 1.693 7.323 2.316 10.23 2.316 2.21 0 5.051-.498 7.072-1.625.19-.308.062-.883-.317-.945-.885.381-2.4.571-3.029.571-1.454 0-3.54-.126-5.876-.89-5.046-1.654-10.858-6.877-14.08-9.996-.38-.383-.63-.637-.504-.954 8.843-2.651 15.278-10.663 15.278-21.071 0-11.102-7.321-21.605-21.912-21.605z" fill="#1A1918"/><path d="M87.053 71.04c-12.444 0-16.991-12.113-16.991-21.45 0-13.816 8.529-18.293 15.097-18.293 12.068 0 16.68 11.229 16.68 21.637 0 12.429-7.202 18.106-14.786 18.106zm-.819-41.666c-13.015 0-22.48 9.619-22.48 22.236 0 9.021 5.11 16.466 13.508 19.683 2.278.821 4.552 1.267 6.192 1.521 1.768.317 2.34.445 4.234 2.355 2.337 2.291 6.507 5.984 11.684 8.404 3.727 1.693 7.323 2.316 10.23 2.316 2.21 0 5.051-.498 7.072-1.625.19-.308.062-.883-.317-.945-.885.381-2.4.571-3.029.571-1.454 0-3.54-.126-5.876-.89-5.046-1.654-10.858-6.877-14.08-9.996-.38-.383-.63-.637-.504-.954 8.843-2.651 15.278-10.663 15.278-21.071 0-11.102-7.321-21.605-21.912-21.605z" stroke="#1A1918" stroke-width="1.696"/><path d="M115.03 47.789c0-4.929-.36-5.07-3.376-5.715l-1.003-.215c-.503-.36-.433-1.585.141-1.8 2.442.145 4.665.158 6.949.158 2.283 0 4.508-.013 7.307-.158.578.215.65 1.44.146 1.8l-1.364.215c-3.092.499-3.376.786-3.376 5.715V57.86c0 7.146 2.371 12.005 9.337 12.005 6.484 0 9.301-4.859 9.301-11.932V51.29c0-7.146-.433-8.789-3.542-9.216l-1.516-.215c-.51-.433-.436-1.44.144-1.8 2.314.145 3.975.158 6.074.158 2.094 0 3.675-.013 5.972-.158.573.36.573 1.44.07 1.8l-2.153.215c-1.867.213-2.437 2.145-2.437 9.216v7.073c0 9.144-4.273 13.941-13.418 13.941-4.602 0-8.05-.933-10.186-3.01-2.139-2.144-3.07-5.431-3.07-10.075v-11.43z" fill="#1A1918"/><path d="M115.03 47.789c0-4.929-.36-5.07-3.376-5.715l-1.003-.215c-.503-.36-.433-1.585.141-1.8 2.442.145 4.665.158 6.949.158 2.283 0 4.508-.013 7.307-.158.578.215.65 1.44.146 1.8l-1.364.215c-3.092.499-3.376.786-3.376 5.715V57.86c0 7.146 2.371 12.005 9.337 12.005 6.484 0 9.301-4.859 9.301-11.932V51.29c0-7.146-.433-8.789-3.542-9.216l-1.516-.215c-.51-.433-.436-1.44.144-1.8 2.314.145 3.975.158 6.074.158 2.094 0 3.675-.013 5.972-.158.573.36.573 1.44.07 1.8l-2.153.215c-1.867.213-2.437 2.145-2.437 9.216v7.073c0 9.144-4.273 13.941-13.418 13.941-4.602 0-8.05-.933-10.186-3.01-2.139-2.144-3.07-5.431-3.07-10.075v-11.43z" stroke="#1A1918" stroke-width="1.696"/><path d="M155.723 57.973c-1.578 0-1.727-.143-.932-2.083l2.588-6.393c.645-1.508.93-2.156 1.147-2.443h.143c.217.359.504.935 1.079 2.586l2.226 6.106c.792 2.084.577 2.227-1.294 2.227h-4.957zm6.108 2.271c1.652 0 1.868.072 2.444 1.709l1.724 4.63c.862 2.207.935 2.633-.932 2.918l-1.438.213c-.65.287-.575 1.583.141 1.799 1.796-.143 3.877-.159 6.452-.159 2.437 0 4.08.016 5.943.159.716-.143.86-1.439.213-1.799l-1.143-.213c-2.576-.5-3.224-1.425-4.079-3.774l-6.45-17.094c-1.652-4.38-2.802-8.119-3.093-8.836-.141-.43-.574-.574-1.146-.357-.359.861-1.725 2.226-3.018 2.729-.145 1.364-.65 3.09-1.87 6.034l-6.888 16.456c-1.428 3.417-2.217 4.201-4.431 4.698l-1.647.357c-.502.36-.502 1.513.143 1.799a89.284 89.284 0 0 1 5.005-.159c2.002 0 3.865.016 5.664.159.72-.143.791-1.439.212-1.799l-1.934-.357c-1.37-.284-1.584-.567-.795-2.846l1.653-4.558c.577-1.637.792-1.709 2.444-1.709h6.826z" fill="#1A1918"/><path d="M155.723 57.973c-1.578 0-1.727-.143-.932-2.083l2.588-6.393c.645-1.508.93-2.156 1.147-2.443h.143c.217.359.504.935 1.079 2.586l2.226 6.106c.792 2.084.577 2.227-1.294 2.227h-4.957zm6.108 2.271c1.652 0 1.868.072 2.444 1.709l1.724 4.63c.862 2.207.935 2.633-.932 2.918l-1.438.213c-.65.287-.575 1.583.141 1.799 1.796-.143 3.877-.159 6.452-.159 2.437 0 4.08.016 5.943.159.716-.143.86-1.439.213-1.799l-1.143-.213c-2.576-.5-3.224-1.425-4.079-3.774l-6.45-17.094c-1.652-4.38-2.802-8.119-3.093-8.836-.141-.43-.574-.574-1.146-.357-.359.861-1.725 2.226-3.018 2.729-.145 1.364-.65 3.09-1.87 6.034l-6.888 16.456c-1.428 3.417-2.217 4.201-4.431 4.698l-1.647.357c-.502.36-.502 1.513.143 1.799a89.284 89.284 0 0 1 5.005-.159c2.002 0 3.865.016 5.664.159.72-.143.791-1.439.212-1.799l-1.934-.357c-1.37-.284-1.584-.567-.795-2.846l1.653-4.558c.577-1.637.792-1.709 2.444-1.709h6.826z" stroke="#1A1918" stroke-width="1.696"/><path d="M185.795 47.787c0-4.927-.288-5.214-3.372-5.713l-1.368-.215c-.501-.36-.429-1.585.145-1.8 2.801.145 5.024.158 7.306.158 2.284 0 4.508-.013 7.308-.158.575.215.645 1.44.143 1.8l-1.365.215c-3.085.499-3.375.786-3.375 5.713V63.79c0 4.927.29 5.212 3.375 5.712l1.365.213c.502.36.432 1.583-.143 1.799-2.73-.143-5.094-.159-7.308-.159-2.282 0-4.505.016-7.306.159-.574-.216-.646-1.439-.145-1.799l1.368-.213c3.084-.5 3.372-.785 3.372-5.712V47.787z" fill="#1A1918"/><path d="M185.795 47.787c0-4.927-.288-5.214-3.372-5.713l-1.368-.215c-.501-.36-.429-1.585.145-1.8 2.801.145 5.024.158 7.306.158 2.284 0 4.508-.013 7.308-.158.575.215.645 1.44.143 1.8l-1.365.215c-3.085.499-3.375.786-3.375 5.713V63.79c0 4.927.29 5.212 3.375 5.712l1.365.213c.502.36.432 1.583-.143 1.799-2.73-.143-5.094-.159-7.308-.159-2.282 0-4.505.016-7.306.159-.574-.216-.646-1.439-.145-1.799l1.368-.213c3.084-.5 3.372-.785 3.372-5.712V47.787z" stroke="#1A1918" stroke-width="1.696"/><path d="M208.484 47.796c0-4.936-.288-5.223-3.377-5.722l-1.365-.215c-.499-.36-.43-1.585.149-1.8 2.797.145 5.021.158 7.303.158 2.285 0 4.505-.013 6.877-.158.573.215.647 1.44.146 1.8l-.934.215c-3.019.713-3.376.786-3.376 5.722v15.381c0 2.217.144 4.219.787 4.936.65.644 1.797 1.146 5.532 1.146 4.377 0 7.035-.218 9.119-5.94.502-.5 1.65-.358 1.865.288-.357 3.003-1.363 6.586-2.152 7.916-2.226-.072-4.31-.143-6.319-.113-1.938-.069-3.805-.069-5.674-.069h-5.871c-2.282 0-4.506.069-7.303.182-.58-.216-.648-1.43-.149-1.732l1.365-.212c3.09-.5 3.377-.786 3.377-5.73V47.796z" fill="#1A1918"/><path d="M208.484 47.796c0-4.936-.288-5.223-3.377-5.722l-1.365-.215c-.499-.36-.43-1.585.149-1.8 2.797.145 5.021.158 7.303.158 2.285 0 4.505-.013 6.877-.158.573.215.647 1.44.146 1.8l-.934.215c-3.019.713-3.376.786-3.376 5.722v15.381c0 2.217.144 4.219.787 4.936.65.644 1.797 1.146 5.532 1.146 4.377 0 7.035-.218 9.119-5.94.502-.5 1.65-.358 1.865.288-.357 3.003-1.363 6.586-2.152 7.916-2.226-.072-4.31-.143-6.319-.113-1.938-.069-3.805-.069-5.674-.069h-5.871c-2.282 0-4.506.069-7.303.182-.58-.216-.648-1.43-.149-1.732l1.365-.212c3.09-.5 3.377-.786 3.377-5.73V47.796z" stroke="#1A1918" stroke-width="1.696"/><path d="M68.293 20.274c-15.825 6.77-.847 33.486-18.84 47.69-14.091 11.123-31.252 8.366-39.035.22 13.34 6.739 36.058-5.03 35.816-30.42-.2-20.993 17.043-22.76 22.06-17.49" fill="#B2945A"/><path d="M56.87 24.826c.824-.652 1.204-1.686.848-2.312-.357-.624-1.313-.603-2.135.049-.827.65-1.207 1.684-.85 2.31.355.624 1.311.604 2.136-.047" fill="#FFF"/><path d="M55.863 19.934C56.057 10.69 64.754-.02 64.754-.02l8.274 4.573c-12.422.586-17.165 15.381-17.165 15.381M25.474 88.736C24.034 80.41 29.961 69.2 29.961 69.2l8.214 2.566c-11.033 2.827-12.7 16.97-12.7 16.97" fill="#B2945A"/><path d="M33.455 87.707c-3.1-7.827.423-20.067.423-20.067l8.555.743c-10.213 5.137-8.978 19.324-8.978 19.324M41.404 37.11C26.731 38.719 7.534 53.423.276 68.05c10.25 4.311 26.152-1.59 30.091-4.703C42.913 53.444 41.404 37.11 41.404 37.11M226.91 78.13H109.702" fill="#B2945A"/><path d="M226.91 78.13H109.702" stroke="#B2945A" stroke-width="1.116"/><path d="M80.198 78.13H47.145" fill="#B2945A"/><path d="M80.198 78.13H47.145" stroke="#B2945A" stroke-width="1.116"/><path d="M-34-46h301v190H-34z"/></g></svg>