<svg xmlns="http://www.w3.org/2000/svg" width="217" height="99"><g fill="none" fill-rule="evenodd"><path d="M111.25 19.174h-3.748v10.433h-1.551V19.174h-3.748v-1.543h9.046v1.543M126.671 29.607h-1.552v-5.231h-6.09v5.23h-1.553V17.63h1.552v5.204h6.091v-5.203h1.552v11.976M139.966 19.174h-4.592v3.609h4.432v1.54h-4.432v3.74h4.733v1.544h-6.282V17.63h6.14v1.543M32.552 90.013l1.498 3.71h-2.887l1.39-3.71zm.491-2.253h-.938l-3.992 10.328h1.362l1.17-3.036h3.949l1.239 3.035h1.364L33.043 87.76zM47.91 89.143h-3.213v8.945H43.36v-8.945H40.15v-1.33h7.76v1.33M62.096 92.948c0-2.255 1.537-3.908 3.606-3.908 2.082 0 3.617 1.652 3.617 3.908 0 2.242-1.535 3.911-3.617 3.911-2.07 0-3.606-1.67-3.606-3.91zm-1.366 0c0 2.783 1.91 5.267 4.945 5.267 3.142 0 5.012-2.499 5.012-5.267 0-2.857-1.926-5.264-4.985-5.264-3.006 0-4.972 2.422-4.972 5.264zM84.317 98.088H82.48l-4.725-5.078v5.078H76.42V87.813h1.335v4.702l3.906-4.703h1.664l-4.046 4.867 5.04 5.409M92.853 90.013l1.496 3.71h-2.886l1.39-3.71zm.488-2.253h-.936l-3.992 10.328h1.362l1.17-3.036h3.952l1.238 3.035h1.359L93.34 87.76zM111.19 98.088h-1.146l-6.21-7.911v7.91h-1.257V87.813h1.065l6.292 7.955v-7.954h1.257v10.275M120.742 90.013l1.496 3.71h-2.887l1.39-3.71zm.49-2.253h-.941l-3.987 10.328h1.359l1.172-3.036h3.948l1.24 3.035h1.363l-4.153-10.327zM138.088 97.372c-1.236.603-2.247.843-3.541.843-2.85 0-4.939-2.199-4.939-5.211 0-3.018 2.143-5.32 4.98-5.32 1.09 0 1.853.196 3.309.873v1.487c-1.087-.661-2.219-1.004-3.338-1.004-2.018 0-3.585 1.696-3.585 3.917 0 2.291 1.553 3.902 3.761 3.902.723 0 1.377-.178 2.022-.403v-2.11h-1.788V93.02h3.119v4.353M147.53 90.013l1.497 3.71h-2.887l1.39-3.71zm.492-2.253h-.944l-3.99 10.328h1.364l1.174-3.036h3.948l1.237 3.035h1.365l-4.154-10.327zM165.868 98.088h-1.148l-6.207-7.911v7.91h-1.255V87.813h1.062l6.292 7.955v-7.954h1.256v10.275M188.012 97.372c-1.242.603-2.25.843-3.545.843-2.848 0-4.937-2.199-4.937-5.211 0-3.018 2.145-5.32 4.98-5.32 1.089 0 1.853.196 3.31.873v1.487c-1.088-.661-2.221-1.004-3.34-1.004-2.016 0-3.583 1.696-3.583 3.917 0 2.291 1.55 3.902 3.762 3.902.723 0 1.378-.178 2.019-.403v-2.11h-1.786V93.02h3.12v4.353M195.32 97.317c0 .498-.369.903-.815.903-.446 0-.815-.406-.815-.903 0-.498.369-.903.815-.903.446 0 .815.404.815.903M209.005 90.106c-1.144-.735-2.127-1.066-3.2-1.066-2.126 0-3.705 1.667-3.705 3.925 0 2.301 1.523 3.894 3.755 3.894 1.054 0 2.196-.403 3.245-1.156v1.61c-.912.527-1.908.902-3.367.902-3.484 0-5-2.964-5-5.115 0-3.127 2.128-5.416 5.083-5.416.954 0 1.921.255 3.189.844v1.578M216.452 97.317c0 .498-.368.903-.814.903-.447 0-.815-.406-.815-.903 0-.498.368-.903.815-.903.446 0 .814.404.814.903" fill="#B2945A"/><path d="M75.517 48.511c0-1.323.268-1.722 3.874-1.722 10.585 0 13.25 6.091 13.25 11.326 0 6.622-4.53 9.27-10.462 9.27-1.995 0-3.994-.33-5.26-1.854-1.267-1.458-1.402-4.836-1.402-7.218v-9.802zm-5.433 10.795c0 6.908-.134 7.7-3.663 8.23l-1.197.199c-.4.432-.265 1.475.133 1.668 2.462-.066 4.727-.16 7.642-.16 2.784 0 6.051.16 7.983.16 11.99 0 17.726-5.13 17.726-12.813 0-7.088-5.334-10.401-8.933-11.07-.732-.134-1.266-.333-1.266-1 4.013-1.855 6.801-4.312 6.801-9.086 0-4.246-2.19-6.9-5.042-8.292-3-1.497-7.006-1.821-11.212-1.821-6.187 0-10.703.195-14.297.52-.534.261-.599 1.238-.067 1.631l2.131.201c2.994.329 3.261 1.526 3.261 6.433v25.2zm5.433-29.843c0-1.195.266-1.524.935-1.724.599-.267 1.598-.4 3.066-.4 5.076 0 9.953 2.457 9.953 8.956 0 6.234-3.673 8.224-10.482 8.49-3.405.134-3.472 0-3.472-1.855V29.461z" fill="#1A1918"/><path d="M75.517 48.511c0-1.323.268-1.722 3.874-1.722 10.585 0 13.25 6.091 13.25 11.326 0 6.622-4.53 9.27-10.462 9.27-1.995 0-3.994-.33-5.26-1.854-1.267-1.458-1.402-4.836-1.402-7.218v-9.802zm-5.433 10.795c0 6.908-.134 7.7-3.663 8.23l-1.197.199c-.4.432-.265 1.475.133 1.668 2.462-.066 4.727-.16 7.642-.16 2.784 0 6.051.16 7.983.16 11.99 0 17.726-5.13 17.726-12.813 0-7.088-5.334-10.401-8.933-11.07-.732-.134-1.266-.333-1.266-1 4.013-1.855 6.801-4.312 6.801-9.086 0-4.246-2.19-6.9-5.042-8.292-3-1.497-7.006-1.821-11.212-1.821-6.187 0-10.703.195-14.297.52-.534.261-.599 1.238-.067 1.631l2.131.201c2.994.329 3.261 1.526 3.261 6.433v25.2zm5.433-29.843c0-1.195.266-1.524.935-1.724.599-.267 1.598-.4 3.066-.4 5.076 0 9.953 2.457 9.953 8.956 0 6.234-3.673 8.224-10.482 8.49-3.405.134-3.472 0-3.472-1.855V29.461z" stroke="#1A1918" stroke-width="1.696"/><path d="M105.199 43.446c0-5.348-.314-5.579-3.302-6.198l-1.1-.234c-.55-.311-.472-1.628.157-1.939 1.18.077 2.36.156 3.538.122 1.257.078 2.506.078 3.757.078h11.198c3.486 0 6.62-.078 7.316-.2.082.929.466 4.572.855 7.902-.312.622-1.55.698-2.012.154-.467-2.015-.937-3.025-1.405-3.722-1.268-1.863-4.832-1.863-6.733-1.863h-3.48c-2.767 0-2.847.077-2.847 2.483v8.644c0 1.408 0 1.566 1.5 1.566h3.721c4.193 0 4.59-.625 5.222-2.971l.395-1.49c.4-.549 1.593-.472 1.987.16-.16 2.267-.173 3.675-.173 5.46 0 1.949.014 3.359.173 5.639-.394.626-1.588.708-1.987.154l-.395-1.49c-.632-2.354-1.03-2.986-5.222-2.986h-3.722c-1.5 0-1.5.236-1.5 1.808v5.656c0 2.355.159 4.791.87 5.654.713.788 2.136 1.101 6.644 1.101 5.077 0 7.989-.239 10.269-6.52.548-.55 1.808-.394 2.042.314-.392 3.299-1.494 7.223-2.357 8.675-2.44-.078-4.723-.154-6.947-.12-2.214-.08-4.348-.08-6.486-.08h-6.926c-2.5 0-4.935.08-8.712.2-.627-.236-.708-1.566-.156-1.886l2.123-.233c3.381-.395 3.695-.868 3.695-6.3V43.445z" fill="#1A1918"/><path d="M105.199 43.446c0-5.348-.314-5.579-3.302-6.198l-1.1-.234c-.55-.311-.472-1.628.157-1.939 1.18.077 2.36.156 3.538.122 1.257.078 2.506.078 3.757.078h11.198c3.486 0 6.62-.078 7.316-.2.082.929.466 4.572.855 7.902-.312.622-1.55.698-2.012.154-.467-2.015-.937-3.025-1.405-3.722-1.268-1.863-4.832-1.863-6.733-1.863h-3.48c-2.767 0-2.847.077-2.847 2.483v8.644c0 1.408 0 1.566 1.5 1.566h3.721c4.193 0 4.59-.625 5.222-2.971l.395-1.49c.4-.549 1.593-.472 1.987.16-.16 2.267-.173 3.675-.173 5.46 0 1.949.014 3.359.173 5.639-.394.626-1.588.708-1.987.154l-.395-1.49c-.632-2.354-1.03-2.986-5.222-2.986h-3.722c-1.5 0-1.5.236-1.5 1.808v5.656c0 2.355.159 4.791.87 5.654.713.788 2.136 1.101 6.644 1.101 5.077 0 7.989-.239 10.269-6.52.548-.55 1.808-.394 2.042.314-.392 3.299-1.494 7.223-2.357 8.675-2.44-.078-4.723-.154-6.947-.12-2.214-.08-4.348-.08-6.486-.08h-6.926c-2.5 0-4.935.08-8.712.2-.627-.236-.708-1.566-.156-1.886l2.123-.233c3.381-.395 3.695-.868 3.695-6.3V43.445z" stroke="#1A1918" stroke-width="1.696"/><path d="M148.148 54.625c-1.731 0-1.888-.159-1.023-2.276l2.832-6.971c.71-1.646 1.023-2.351 1.261-2.666h.155c.237.393.552 1.02 1.18 2.821l2.443 6.662c.866 2.271.627 2.43-1.42 2.43h-5.428zm6.688 2.478c1.81 0 2.047.078 2.678 1.863l1.888 5.047c.944 2.41 1.019 2.876-1.023 3.183l-1.573.236c-.71.315-.632 1.727.156 1.963 1.965-.154 4.244-.173 7.067-.173 2.662 0 4.47.019 6.503.174.784-.155.942-1.573.234-1.964l-1.254-.236c-2.82-.541-3.523-1.55-4.466-4.115l-7.063-18.644c-1.809-4.78-3.069-8.853-3.382-9.636-.16-.471-.63-.627-1.26-.393-.39.942-1.891 2.43-3.304 2.977-.157 1.49-.709 3.368-2.048 6.583l-7.544 17.948c-1.567 3.73-2.426 4.582-4.856 5.127l-1.797.389c-.552.391-.552 1.65.155 1.963a94.915 94.915 0 0 1 5.482-.173c2.193 0 4.235.019 6.2.174.788-.155.865-1.573.24-1.964l-2.127-.389c-1.495-.31-1.731-.62-.866-3.105l1.81-4.972c.63-1.785.864-1.863 2.676-1.863h7.474z" fill="#1A1918"/><path d="M148.148 54.625c-1.731 0-1.888-.159-1.023-2.276l2.832-6.971c.71-1.646 1.023-2.351 1.261-2.666h.155c.237.393.552 1.02 1.18 2.821l2.443 6.662c.866 2.271.627 2.43-1.42 2.43h-5.428zm6.688 2.478c1.81 0 2.047.078 2.678 1.863l1.888 5.047c.944 2.41 1.019 2.876-1.023 3.183l-1.573.236c-.71.315-.632 1.727.156 1.963 1.965-.154 4.244-.173 7.067-.173 2.662 0 4.47.019 6.503.174.784-.155.942-1.573.234-1.964l-1.254-.236c-2.82-.541-3.523-1.55-4.466-4.115l-7.063-18.644c-1.809-4.78-3.069-8.853-3.382-9.636-.16-.471-.63-.627-1.26-.393-.39.942-1.891 2.43-3.304 2.977-.157 1.49-.709 3.368-2.048 6.583l-7.544 17.948c-1.567 3.73-2.426 4.582-4.856 5.127l-1.797.389c-.552.391-.552 1.65.155 1.963a94.915 94.915 0 0 1 5.482-.173c2.193 0 4.235.019 6.2.174.788-.155.865-1.573.24-1.964l-2.127-.389c-1.495-.31-1.731-.62-.866-3.105l1.81-4.972c.63-1.785.864-1.863 2.676-1.863h7.474z" stroke="#1A1918" stroke-width="1.696"/><path d="M187.02 39.53c0-2.019.555-2.176 3.478-2.176 5.538 0 8.306 3.422 8.306 7.31 0 5.362-2.688 7.386-7.83 7.386-3.877 0-3.954 0-3.954-1.946V39.531zm-5.94 21.408c0 5.399-.315 5.558-3.695 6.258l-1.179.236c-.708.315-.63 1.727.154 1.963 2.755-.154 5.188-.173 7.69-.173 2.421 0 5.027.019 8.345.174.633-.237.715-1.573.158-1.964l-1.815-.236c-3.402-.469-3.718-.859-3.718-6.258v-5.553c0-1.084.158-1.238 2.214-1.238 1.264 0 2.531.307 3.161 1.239 1.662 2.525 3.798 5.995 5.776 8.52 3.457 4.413 6.283 5.88 11 5.88 1.491 0 2.596-.157 3.3-.386.318-.233.318-.928 0-1.236a7.053 7.053 0 0 1-4.165-1.656c-2.594-2.13-6.05-5.995-9.976-12.597-.24-.387-.317-.852 0-1.164 3.065-1.086 6.989-3.342 6.989-8.316 0-8.173-7.937-9.346-15.291-9.346-4.337 0-8.715.157-13.035.47-.787.234-.633 1.88 0 1.956l2.2.311c1.808.234 1.887 1.555 1.887 6.609v16.508z" fill="#1A1918"/><path d="M187.02 39.53c0-2.019.555-2.176 3.478-2.176 5.538 0 8.306 3.422 8.306 7.31 0 5.362-2.688 7.386-7.83 7.386-3.877 0-3.954 0-3.954-1.946V39.531zm-5.94 21.408c0 5.399-.315 5.558-3.695 6.258l-1.179.236c-.708.315-.63 1.727.154 1.963 2.755-.154 5.188-.173 7.69-.173 2.421 0 5.027.019 8.345.174.633-.237.715-1.573.158-1.964l-1.815-.236c-3.402-.469-3.718-.859-3.718-6.258v-5.553c0-1.084.158-1.238 2.214-1.238 1.264 0 2.531.307 3.161 1.239 1.662 2.525 3.798 5.995 5.776 8.52 3.457 4.413 6.283 5.88 11 5.88 1.491 0 2.596-.157 3.3-.386.318-.233.318-.928 0-1.236a7.053 7.053 0 0 1-4.165-1.656c-2.594-2.13-6.05-5.995-9.976-12.597-.24-.387-.317-.852 0-1.164 3.065-1.086 6.989-3.342 6.989-8.316 0-8.173-7.937-9.346-15.291-9.346-4.337 0-8.715.157-13.035.47-.787.234-.633 1.88 0 1.956l2.2.311c1.808.234 1.887 1.555 1.887 6.609v16.508z" stroke="#1A1918" stroke-width="1.696"/><path d="M34.544 36.268c-6.015-2.285-2.456 7.99-11.701 7.745-3.731-.098.137 3.696-14.287 12.031C-2.9 62.661 21.788 95.061 30.813 77.29c9.642-18.98 16.102 4.386 24.277-10.482 7.423-13.503-6.616-11.249-6.751-16.26-.139-5.01-7.777-11.994-13.795-14.28M8.304 51.075c3.273-1.319 5.325-7.013 2.284-11.558-5.724-8.553-4.826-13.848-4.826-13.848S-1.425 36.74.955 45.654c1.555 5.836 4.076 6.737 7.349 5.42M16.123 40.34c3.58.933 7.615-3.32 6.41-9.933-2.269-12.434.527-17.089.527-17.089s-10.865 6.084-11.894 16.583c-.673 6.875 1.378 9.505 4.957 10.44M32.157 30.838c-2.738-.632-4.99-5.751-2.593-13.275C32.799 7.401 36.72.781 36.72.781s3.056 7.208 2.749 19.479c-.202 8.064-3.107 11.555-7.312 10.578M57.408 52.29c-3.356-1.076-6.054-6.497-3.635-11.127 4.545-8.715 3.027-13.821 3.027-13.821s8.352 10.336 7.118 19.184c-.813 5.793-3.162 6.837-6.51 5.763M45.238 37.352c-3.56-.854-5.87-6.655-2.648-12.097 6.058-10.24 5.007-15.81 5.007-15.81s7.936 10.72 5.502 20.77c-1.593 6.581-4.305 7.993-7.861 7.137M211.24 76.335H40.602" fill="#B2945A"/><path d="M211.24 76.335H40.602" stroke="#B2945A" stroke-width="1.116"/><path d="M-43-42h301v190H-43z"/></g></svg>